<?xml version="1.0" standalone="no"?>
<!DOCTYPE svg PUBLIC "-//W3C//DTD SVG 20010904//EN"
 "http://www.w3.org/TR/2001/REC-SVG-20010904/DTD/svg10.dtd">
<svg version="1.0" xmlns="http://www.w3.org/2000/svg"
 width="969.000000pt" height="825.000000pt" viewBox="0 0 969.000000 825.000000"
 preserveAspectRatio="xMidYMid meet">
<metadata>
Created by potrace 1.15, written by Peter Selinger 2001-2017
</metadata>
<g transform="translate(0.000000,825.000000) scale(0.100000,-0.100000)"
fill="#000000" stroke="none">
<path d="M4905 8234 c-489 -58 -933 -190 -1380 -410 -177 -87 -217 -109 -376
-210 -822 -521 -1420 -1288 -1725 -2212 -24 -75 -46 -146 -48 -157 -2 -11 -13
-56 -24 -100 -41 -158 -62 -263 -89 -440 -26 -173 -28 -196 -28 -575 0 -363 2
-408 23 -550 27 -176 65 -370 94 -479 11 -41 22 -83 24 -95 2 -12 24 -83 49
-159 l46 -139 -27 -21 c-37 -30 -185 -140 -275 -205 -41 -29 -207 -148 -369
-265 -385 -277 -492 -359 -481 -370 12 -12 144 65 659 385 238 149 459 284
491 302 l57 33 19 -46 c10 -25 40 -93 67 -150 27 -57 51 -114 54 -127 5 -20
-26 -46 -268 -228 -291 -219 -338 -258 -320 -264 17 -5 128 56 489 269 45 27
86 49 90 49 4 0 19 9 33 20 14 11 32 20 40 20 8 0 38 -41 67 -93 29 -50 62
-106 73 -123 l21 -32 -48 -39 c-27 -21 -58 -45 -70 -53 -11 -8 -92 -65 -180
-126 -87 -61 -203 -142 -258 -179 -55 -38 -127 -87 -160 -110 -60 -42 -152
-105 -365 -250 -63 -43 -135 -93 -160 -110 -25 -17 -83 -58 -130 -90 -302
-209 -520 -373 -520 -391 0 -8 2 -14 4 -14 4 0 90 49 234 131 37 22 71 42 122
74 19 12 181 109 359 216 178 107 338 203 357 214 68 42 216 130 232 140 9 6
113 68 230 138 117 70 228 136 245 146 18 10 75 44 128 74 l97 55 92 -119
c313 -405 745 -778 1204 -1040 82 -47 343 -174 446 -217 352 -148 753 -251
1150 -296 191 -22 753 -22 940 0 259 31 550 94 785 172 112 37 167 57 305 112
82 32 393 189 485 245 481 290 858 625 1206 1071 185 238 426 655 529 914 72
183 124 331 163 465 50 176 104 423 117 540 5 44 16 148 25 230 23 209 16 678
-14 920 -44 357 -131 700 -249 985 l-39 93 85 120 c168 234 292 438 372 611
59 127 82 206 78 274 l-3 57 -100 13 c-175 23 -802 3 -998 -31 l-77 -14 -69
81 c-101 119 -368 376 -506 489 -609 493 -1300 784 -2070 871 -182 21 -782 21
-960 0z m810 -234 c308 -28 746 -148 1205 -328 229 -90 356 -159 590 -319 186
-128 453 -345 573 -468 77 -78 137 -154 137 -173 0 -5 -17 -13 -37 -16 -79
-15 -401 -113 -533 -163 -167 -63 -347 -142 -475 -208 -133 -68 -161 -83 -247
-134 l-37 -22 -78 53 c-106 74 -178 116 -308 181 -151 75 -208 98 -370 150
-278 88 -482 120 -775 121 -420 1 -780 -82 -1155 -268 -506 -252 -917 -664
-1162 -1166 -74 -153 -88 -185 -127 -304 -124 -369 -165 -777 -116 -1161 12
-88 22 -169 23 -179 2 -19 -224 -175 -985 -678 l-146 -96 -19 47 c-72 173
-158 590 -185 896 -17 193 -17 551 0 730 20 208 78 518 134 710 58 200 68 231
132 395 131 340 336 683 562 942 386 441 665 684 1051 916 274 165 583 309
813 380 264 81 629 147 890 162 188 10 532 11 645 0z m80 -1555 c168 -33 311
-76 460 -137 146 -60 434 -219 442 -244 2 -7 -135 -98 -171 -113 -25 -10 -356
-237 -460 -316 -154 -116 -398 -320 -506 -423 l-85 -81 -175 -1 c-511 -1 -865
-68 -1295 -245 -16 -6 -46 -18 -65 -25 -61 -23 -345 -167 -422 -213 -65 -39
-210 -124 -308 -179 -78 -45 -140 -91 -140 -104 0 -10 7 -13 23 -9 74 17 277
35 395 35 306 0 572 -77 757 -220 50 -38 95 -90 95 -109 0 -5 -96 -105 -213
-223 -117 -117 -237 -245 -268 -283 -54 -69 -119 -165 -119 -178 0 -11 156
-238 194 -282 l34 -40 78 19 c107 25 232 60 399 110 77 24 176 53 220 66 44
12 102 29 128 37 27 8 50 13 51 12 2 -2 14 -56 27 -119 66 -330 -18 -687 -241
-1029 -77 -117 -82 -128 -49 -111 13 7 54 33 92 56 37 24 100 65 140 90 656
420 1060 805 1316 1252 68 119 148 294 156 342 6 33 12 39 88 79 45 24 199 96
342 161 539 245 802 374 927 453 66 43 60 48 79 -82 29 -205 -39 -772 -130
-1081 -87 -299 -280 -606 -542 -861 -145 -143 -363 -310 -509 -392 -291 -163
-486 -236 -795 -298 -151 -31 -501 -39 -656 -15 -287 44 -410 75 -668 171
-404 149 -867 548 -1103 950 -67 114 -87 150 -87 160 -1 6 31 44 69 85 90 96
98 110 67 110 -13 0 -61 -11 -107 -25 -46 -14 -87 -25 -90 -25 -14 0 -82 188
-95 260 -6 35 -5 36 72 85 124 80 304 217 403 306 98 87 200 204 200 227 0 28
-108 -2 -290 -81 -51 -22 -250 -135 -354 -200 -49 -31 -92 -54 -96 -52 -23 14
-34 154 -33 400 0 240 2 270 27 395 58 293 138 517 267 750 51 92 159 256 198
302 11 13 36 43 56 68 64 80 237 250 330 325 287 232 648 404 1010 480 179 38
261 44 550 40 220 -3 266 -7 380 -30z m3214 -1008 c43 -91 101 -284 126 -422
90 -481 109 -1219 41 -1585 -22 -123 -70 -323 -81 -340 -3 -4 -11 -32 -19 -61
-18 -65 -49 -156 -77 -224 -59 -141 -78 -183 -155 -340 -201 -414 -469 -809
-714 -1055 -290 -291 -597 -512 -1045 -749 -315 -168 -750 -313 -1150 -385
-201 -36 -331 -46 -580 -46 -560 1 -951 69 -1395 243 -189 74 -494 234 -710
371 -153 98 -449 355 -686 597 -141 144 -334 369 -334 389 0 5 62 51 138 101
229 154 350 238 496 343 138 101 286 229 286 248 0 28 -170 -41 -350 -142 -36
-20 -94 -53 -130 -72 -131 -71 -321 -185 -471 -284 -67 -43 -71 -45 -85 -27
-16 20 -71 109 -119 194 l-33 57 252 156 c138 86 332 208 431 271 418 263 409
258 418 244 4 -8 36 -62 70 -120 119 -202 238 -353 413 -526 270 -266 544
-440 931 -591 69 -27 244 -76 363 -101 387 -81 839 -62 1230 50 684 198 1271
688 1588 1324 228 459 311 954 247 1480 -8 66 -17 134 -20 150 -5 29 -1 33
107 105 315 208 720 549 883 743 44 52 83 93 88 90 4 -2 25 -41 46 -86z
m-6096 -2154 c15 -49 38 -114 51 -145 l24 -57 -115 -73 c-177 -113 -394 -255
-687 -451 -148 -98 -275 -181 -282 -184 -7 -2 -31 32 -60 84 -48 86 -104 199
-104 207 0 4 93 66 225 152 89 57 89 57 131 82 22 12 59 35 84 51 25 16 185
113 355 215 171 103 314 192 320 197 21 20 32 5 58 -78z"/>
<path d="M5227 7703 c-4 -3 -7 -37 -7 -74 0 -38 -7 -189 -15 -336 -8 -147 -16
-309 -17 -359 l-3 -92 65 -6 c36 -3 199 -8 363 -12 l297 -7 0 97 0 96 -215 0
-215 0 0 29 c0 15 -3 56 -6 90 l-7 61 218 0 218 0 -7 46 c-3 26 -6 62 -6 80
l0 34 -174 0 c-95 0 -186 3 -202 6 l-29 5 3 70 4 69 229 0 229 0 0 90 0 90
-29 0 c-17 0 -119 4 -228 9 -376 18 -460 21 -466 14z"/>
<path d="M4475 7611 c-27 -10 -72 -26 -98 -36 -27 -10 -51 -24 -54 -31 -3 -8
11 -67 32 -131 79 -253 90 -293 79 -293 -3 0 -99 70 -212 155 -115 86 -216
155 -227 155 -22 0 -126 -39 -182 -68 -39 -20 -39 -25 -12 -94 12 -29 27 -71
34 -93 7 -22 39 -112 70 -200 31 -88 77 -222 102 -297 30 -93 50 -138 59 -138
8 0 57 16 108 35 52 19 101 35 110 35 24 0 27 -13 -50 190 -38 98 -82 230 -78
230 3 0 90 -57 195 -127 269 -181 243 -167 287 -155 85 24 177 62 180 75 4 19
-101 341 -246 759 -19 54 -25 55 -97 29z"/>
<path d="M6508 7448 c-58 -135 -64 -117 61 -187 l110 -61 -14 -33 c-7 -17 -58
-122 -113 -232 -101 -202 -154 -316 -150 -320 24 -18 233 -113 239 -109 5 3
48 82 95 177 108 215 194 380 204 390 4 4 52 -14 107 -42 154 -77 142 -79 192
30 23 51 40 97 38 104 -5 12 -701 365 -721 365 -7 0 -29 -37 -48 -82z"/>
<path d="M2896 6728 c-68 -66 -96 -100 -96 -116 0 -21 27 -96 81 -222 10 -25
36 -90 58 -146 37 -94 92 -223 145 -339 13 -27 32 -69 42 -92 10 -23 24 -43
31 -43 15 0 183 169 183 184 0 6 -11 34 -25 61 -13 28 -25 55 -25 62 0 6 47
54 104 107 l103 96 66 -31 65 -30 94 78 c52 43 103 83 114 90 19 11 19 11 -1
27 -49 38 -806 406 -836 406 -4 0 -50 -42 -103 -92z m271 -260 c21 -12 62 -35
91 -51 l54 -30 -53 -53 c-42 -43 -56 -51 -65 -41 -13 13 -114 211 -114 222 0
4 11 0 24 -9 14 -8 42 -26 63 -38z"/>
<path d="M2789 5563 c-28 -60 -67 -143 -86 -186 -32 -68 -39 -77 -57 -71 -12
4 -140 65 -285 135 -145 71 -267 129 -271 129 -10 0 -101 -199 -107 -235 -4
-28 -1 -32 39 -52 86 -43 248 -118 491 -228 215 -99 248 -111 256 -97 5 10 38
82 74 162 35 80 79 175 96 213 17 37 44 96 61 131 51 111 52 104 -45 159 -47
26 -92 47 -100 47 -9 0 -35 -42 -66 -107z"/>
<path d="M1980 4691 c-78 -24 -117 -60 -157 -146 l-28 -60 -3 -266 -3 -266
173 -6 c95 -4 291 -7 436 -7 l262 0 0 124 0 123 -46 7 c-26 3 -99 6 -162 6
l-115 0 6 78 c9 98 -8 243 -33 291 -27 53 -81 98 -142 116 -54 16 -145 19
-188 6z m154 -286 c24 -26 36 -71 36 -137 l0 -38 -100 0 -100 0 0 38 c1 50 15
107 34 137 24 36 97 36 130 0z"/>
<path d="M8635 4476 c-128 -31 -183 -96 -250 -293 -60 -177 -92 -212 -139
-150 -49 65 2 183 87 202 l27 7 0 108 c0 120 -2 123 -67 113 -97 -15 -197
-100 -230 -196 -13 -39 -17 -84 -17 -182 0 -117 2 -135 23 -179 35 -70 73
-110 133 -136 119 -52 247 -10 317 103 18 31 71 177 71 198 0 6 12 35 26 66
44 92 117 106 150 28 20 -48 17 -99 -6 -145 -21 -41 -52 -63 -109 -75 l-34 -7
6 -62 c4 -33 12 -89 18 -123 11 -62 12 -63 43 -63 77 0 211 95 258 183 21 39
23 55 22 197 0 187 -17 242 -96 326 -75 80 -141 102 -233 80z"/>
<path d="M8032 3361 c-101 -35 -184 -144 -223 -296 -24 -91 -24 -162 1 -228
51 -136 210 -200 336 -134 56 29 99 74 170 179 84 123 154 166 200 121 23 -24
15 -130 -15 -171 -28 -40 -82 -64 -134 -60 l-42 3 -17 -75 c-10 -41 -19 -97
-20 -125 l-3 -50 90 1 c83 0 95 3 155 35 125 66 188 195 197 399 5 115 5 117
-26 178 -40 79 -56 99 -106 125 -31 17 -57 22 -115 22 -129 0 -197 -47 -314
-214 -90 -128 -123 -152 -160 -115 -23 23 -20 71 9 119 25 44 56 62 114 67 34
3 35 4 62 93 37 118 37 122 -8 134 -53 15 -90 13 -151 -8z"/>
<path d="M7413 2373 c-99 -109 -205 -225 -236 -258 -31 -33 -57 -67 -57 -76 0
-15 159 -170 404 -394 61 -55 133 -121 160 -147 28 -26 56 -48 63 -48 6 0 31
22 55 48 23 27 132 146 241 265 109 120 197 221 195 225 -5 13 -136 122 -146
122 -5 0 -24 -18 -43 -39 -19 -21 -77 -86 -131 -143 -53 -56 -104 -113 -115
-126 l-18 -23 -57 58 -58 58 68 70 c37 39 101 105 142 148 l75 78 -65 59 c-36
33 -68 59 -72 57 -4 -1 -70 -68 -146 -148 l-140 -146 -47 44 c-46 44 -46 45
-28 66 10 12 78 89 152 171 l135 149 -70 63 c-38 35 -72 63 -75 64 -4 0 -87
-89 -186 -197z"/>
<path d="M3200 2038 c-91 -111 -214 -258 -274 -327 l-109 -124 44 -40 c24 -21
62 -56 84 -76 50 -46 405 -344 424 -355 9 -6 33 11 77 55 35 35 64 68 64 74 0
6 -10 19 -22 30 -126 106 -318 279 -318 286 0 4 19 29 43 55 l43 46 162 -122
c89 -67 165 -120 169 -118 5 1 33 29 63 61 l55 59 -31 26 c-17 15 -90 76 -162
136 -146 120 -139 105 -76 177 l31 36 162 -134 c89 -73 166 -133 171 -133 10
0 120 129 120 140 0 8 -537 450 -547 450 -4 0 -82 -91 -173 -202z"/>
<path d="M6652 1739 c-41 -11 -161 -63 -269 -115 -189 -93 -195 -97 -190 -123
3 -15 60 -139 127 -276 67 -138 147 -302 177 -365 31 -63 57 -117 59 -119 2
-2 27 6 55 18 117 51 179 84 179 97 0 7 -18 49 -40 93 -22 44 -53 112 -69 151
-28 69 -29 71 -9 81 36 19 74 12 139 -26 83 -48 178 -116 208 -149 25 -27 50
-33 66 -17 6 5 51 30 100 56 118 62 122 67 100 97 -63 81 -206 165 -299 175
-31 3 -59 10 -62 15 -4 5 5 22 19 36 64 68 77 100 77 184 0 48 -5 89 -14 106
-49 94 -188 126 -354 81z m96 -215 c31 -36 29 -77 -8 -107 -35 -30 -144 -97
-156 -97 -15 0 -77 137 -69 150 4 6 44 29 88 51 88 42 108 43 145 3z"/>
<path d="M4110 1663 c0 -3 11 -45 24 -92 38 -134 101 -365 101 -372 0 -8 -234
-203 -337 -282 -38 -29 -68 -57 -68 -63 0 -6 21 -17 48 -24 26 -6 78 -23 115
-36 38 -13 80 -24 94 -24 17 0 66 32 147 95 l121 95 12 -29 c7 -16 17 -60 23
-98 6 -37 17 -91 25 -120 l15 -51 118 -37 c178 -56 183 -57 188 -52 3 2 -4 29
-14 58 -19 55 -59 182 -95 299 -10 36 -25 83 -33 105 -12 35 -12 40 2 48 9 5
86 68 172 139 86 72 164 135 174 142 33 20 19 33 -69 60 -49 15 -112 36 -142
46 -63 22 -49 29 -177 -86 -42 -38 -80 -70 -84 -72 -9 -3 -50 122 -50 153 0
22 -21 97 -30 108 -7 8 -257 97 -272 97 -5 0 -8 -3 -8 -7z"/>
<path d="M5200 1393 c0 -10 4 -99 10 -198 5 -99 15 -287 21 -417 l12 -238 140
0 140 0 -5 165 -5 165 77 0 c96 0 222 31 274 68 21 15 49 47 63 72 22 41 24
54 21 156 -3 104 -5 113 -32 148 -16 21 -49 51 -74 67 l-46 29 -298 0 c-277 0
-298 -1 -298 -17z m467 -178 c26 -18 36 -59 25 -100 -11 -42 -61 -65 -139 -65
l-63 0 0 38 c0 20 -3 61 -6 90 l-7 52 84 0 c59 0 91 -5 106 -15z"/>
</g>
</svg>
