<?xml version="1.0" standalone="no"?>
<!DOCTYPE svg PUBLIC "-//W3C//DTD SVG 20010904//EN"
 "http://www.w3.org/TR/2001/REC-SVG-20010904/DTD/svg10.dtd">
<svg version="1.0" xmlns="http://www.w3.org/2000/svg"
 width="530.000000pt" height="471.000000pt" viewBox="0 0 530.000000 471.000000"
 preserveAspectRatio="xMidYMid meet">
<metadata>
Created by potrace 1.15, written by Peter Selinger 2001-2017
</metadata>
<g transform="translate(0.000000,471.000000) scale(0.100000,-0.100000)"
fill="#000000" stroke="none">
<path d="M1865 4674 c-8 -9 -15 -21 -15 -28 0 -7 -9 -21 -19 -30 -11 -10 -23
-32 -27 -50 -3 -17 -13 -38 -20 -47 -8 -9 -26 -56 -39 -105 -13 -49 -33 -116
-44 -148 -25 -70 -27 -114 -6 -144 12 -17 13 -26 5 -42 -6 -11 -11 -37 -11
-58 1 -20 -2 -85 -5 -144 -10 -182 22 -380 84 -507 15 -31 52 -81 82 -111 53
-54 81 -70 300 -173 120 -57 155 -87 249 -214 50 -68 93 -123 96 -123 7 0 -13
31 -97 151 -135 192 -178 306 -178 467 0 99 29 202 66 231 20 16 31 18 56 10
41 -11 60 -29 31 -29 -53 0 -87 -91 -85 -230 2 -190 64 -375 177 -528 44 -61
46 -65 31 -88 -15 -22 -22 -24 -139 -26 l-122 -3 -83 38 c-101 45 -228 83
-313 93 -34 4 -74 13 -88 20 -66 35 -161 -3 -161 -63 0 -65 -335 -421 -540
-575 -63 -47 -212 -148 -330 -223 -371 -237 -460 -305 -544 -414 -24 -31 -55
-79 -70 -108 -14 -29 -35 -57 -45 -63 -25 -13 -44 -70 -35 -106 14 -58 64 -89
103 -65 11 7 25 -1 53 -28 27 -28 58 -45 110 -62 71 -23 158 -85 158 -113 0
-6 -5 -3 -11 7 -5 9 -14 17 -20 17 -5 0 2 -17 16 -37 14 -21 25 -41 25 -44 0
-4 -30 -10 -68 -14 -48 -5 -79 -2 -110 8 -23 8 -42 13 -42 11 0 -2 14 -19 31
-39 27 -31 29 -35 12 -35 -41 0 -102 56 -160 146 -11 16 -11 15 -3 -9 6 -16 6
-26 2 -23 -10 6 -35 63 -51 116 -10 33 -10 33 -6 -17 5 -61 36 -128 68 -144
12 -7 40 -29 63 -49 28 -26 55 -40 84 -45 58 -10 75 8 37 38 l-28 22 53 -3
c79 -5 134 10 130 34 -1 10 -4 35 -6 54 -7 55 -67 104 -161 131 -54 16 -88 33
-112 55 -32 31 -33 34 -27 86 5 43 3 61 -10 81 -17 25 -17 26 8 42 14 9 58 28
98 43 65 23 88 26 218 26 173 1 291 -20 499 -90 338 -114 607 -294 1132 -755
202 -179 316 -264 431 -321 93 -47 219 -88 270 -88 21 0 31 -8 44 -32 18 -37
52 -67 73 -68 8 0 30 -18 49 -40 68 -80 153 -99 267 -60 32 11 73 20 92 20 40
0 42 14 6 37 -35 23 -85 72 -107 105 l-17 26 58 6 c433 50 883 216 1306 480
130 80 141 86 202 102 82 22 98 19 118 -25 11 -25 30 -45 52 -55 40 -19 60
-52 70 -116 15 -99 59 -184 93 -178 9 2 26 -7 39 -19 12 -13 34 -23 48 -23 27
0 32 9 13 28 -9 9 -8 12 8 12 22 1 54 22 54 37 0 6 -7 16 -15 23 -9 7 -15 29
-15 54 0 71 -35 125 -117 179 -56 36 -73 53 -73 71 0 57 -68 96 -130 75 -25
-9 -48 -7 -118 11 -229 57 -469 148 -721 272 l-164 82 -23 50 c-19 40 -24 68
-24 129 0 74 -18 137 -39 137 -4 0 -11 25 -15 55 -13 114 -77 228 -162 288
l-44 31 4 59 c6 107 -29 200 -108 288 -27 30 -46 63 -50 84 -9 45 8 131 34
169 l19 30 6 -30 c15 -66 40 -117 74 -152 40 -41 96 -72 130 -72 19 0 21 -6
21 -74 0 -67 4 -82 42 -157 94 -188 247 -279 467 -279 118 0 201 20 316 75
150 73 228 158 255 281 19 86 -17 187 -70 194 -38 6 -42 -1 -16 -25 30 -28 31
-34 12 -80 -30 -72 -154 -63 -185 13 -6 15 -18 63 -27 107 -8 44 -26 99 -39
121 -27 46 -88 104 -110 104 -23 0 -18 15 11 30 14 8 28 26 31 41 3 17 21 38
48 57 35 25 45 38 50 69 13 84 20 98 55 114 49 23 77 56 62 71 -9 9 -12 8 -12
-3 0 -20 -32 -49 -53 -49 -27 0 -55 -39 -62 -87 -10 -66 -11 -69 -78 -114 -57
-39 -61 -40 -74 -23 -17 24 -17 59 2 74 12 10 15 37 15 119 0 93 3 113 26 161
14 30 35 66 47 78 22 24 96 67 103 60 2 -2 -21 -29 -51 -58 -45 -45 -55 -60
-55 -88 0 -23 -7 -40 -22 -53 -13 -10 -18 -18 -11 -19 7 0 28 14 46 30 19 17
37 30 41 30 16 0 3 -39 -24 -70 -42 -50 -37 -71 6 -24 19 21 33 31 30 22 -10
-33 19 -41 64 -18 51 26 48 36 -5 15 -66 -28 -58 4 14 53 27 18 53 45 60 58
14 31 14 74 1 74 -22 0 -116 -53 -147 -83 -32 -30 -33 -30 -33 -8 0 14 19 41
50 71 81 78 60 106 -37 50 -44 -25 -56 -40 -87 -101 -34 -68 -36 -77 -36 -170
0 -103 -5 -129 -24 -129 -6 0 -23 -6 -38 -14 -35 -18 -118 -36 -216 -45 l-77
-8 -42 39 c-24 21 -47 38 -53 38 -18 0 -10 15 35 64 41 45 65 95 65 136 0 9
16 31 35 49 58 54 70 86 69 177 0 87 -15 154 -49 224 -20 41 -46 126 -60 192
-3 15 -12 33 -21 40 -9 7 -26 24 -38 37 -68 76 -112 104 -181 115 -85 14 -232
-26 -326 -90 -28 -19 -63 -34 -78 -34 -55 0 -131 -30 -167 -67 -34 -34 -38
-35 -114 -37 -84 -1 -100 5 -80 29 7 8 10 30 8 50 -3 29 -1 35 14 35 25 0 23
5 -19 44 l-37 33 46 61 c88 117 84 209 -12 261 -25 14 -52 34 -60 45 -36 52
-106 117 -144 136 -54 26 -130 26 -203 0 -52 -18 -65 -19 -144 -9 -106 14
-147 7 -182 -29 -31 -32 -70 -118 -92 -200 -32 -125 -14 -160 94 -187 39 -9
74 -22 80 -28 22 -28 52 -139 45 -173 -5 -28 -2 -38 12 -49 28 -21 15 -18 -40
10 -62 32 -68 31 -110 -5 l-34 -31 -37 18 c-30 14 -45 33 -77 98 -23 44 -56
120 -75 170 -46 117 -69 164 -101 198 -14 15 -22 27 -18 27 5 0 1 11 -8 25
-16 24 -15 27 23 84 22 32 59 73 83 92 55 41 68 58 61 75 -7 19 -36 26 -65 15
l-25 -10 -6 97 c-6 101 -21 172 -37 172 -6 0 -6 -10 0 -25 19 -49 28 -141 19
-200 -6 -50 -13 -64 -39 -87 -18 -15 -50 -29 -76 -33 -30 -4 -50 -14 -64 -32
-22 -28 -25 -43 -10 -43 6 0 10 7 10 15 0 19 36 41 80 49 20 3 60 24 89 46 53
40 101 52 101 26 0 -7 -17 -25 -37 -39 -44 -31 -82 -76 -111 -134 -21 -39 -23
-41 -71 -41 -27 0 -64 -7 -82 -16 -39 -20 -39 -20 -39 -1 0 8 -4 15 -10 15
-17 0 -11 39 24 164 19 67 40 141 46 165 17 64 32 33 24 -48 l-7 -64 29 7 c67
16 83 27 90 63 4 20 4 67 1 106 -3 39 -2 78 4 88 6 13 6 25 -3 39 -17 27 -35
32 -53 14z m815 -566 c8 -17 33 -41 55 -53 39 -21 54 -47 79 -139 8 -29 33 -3
47 46 12 47 26 41 40 -18 5 -24 5 -51 -2 -70 -10 -32 -50 -59 -65 -44 -5 5 -8
-15 -6 -46 4 -49 0 -62 -39 -130 -49 -85 -117 -154 -152 -154 -52 0 -247 234
-247 296 0 10 -8 42 -17 72 l-17 54 32 27 c23 18 31 32 27 43 -5 13 -2 15 14
11 19 -5 21 -2 15 39 -8 58 5 68 103 75 43 3 85 9 93 14 22 12 24 11 40 -23z
m-750 -65 c17 -21 62 -108 99 -194 37 -86 77 -172 89 -193 12 -20 22 -38 22
-40 0 -1 -17 -1 -37 1 -32 3 -30 1 17 -12 76 -22 82 -32 26 -46 -25 -6 -49
-16 -52 -21 -4 -6 1 -8 12 -4 23 6 106 25 116 26 3 0 0 -24 -8 -52 -17 -64
-18 -192 -3 -274 6 -32 26 -92 44 -131 l33 -73 -51 30 c-29 17 -113 62 -188
101 -195 101 -245 157 -310 350 -31 92 -32 98 -33 286 -1 191 -1 191 24 218
31 35 95 64 137 65 25 0 39 -8 63 -37z m960 -487 c-15 -70 -33 -94 -93 -122
-91 -42 -178 -25 -224 45 -31 47 -29 60 5 28 64 -62 148 -13 232 136 l32 57
30 -46 c28 -44 29 -49 18 -98z m68 21 c2 -21 -7 -59 -22 -95 -69 -163 -103
-374 -78 -482 8 -33 8 -46 -1 -52 -20 -12 -28 30 -32 153 -3 110 -1 124 45
307 28 109 46 201 42 214 -5 22 -5 22 19 7 16 -11 25 -27 27 -52z m-446 -38
c-2 -19 -4 -99 -5 -179 -1 -127 2 -157 26 -248 15 -56 41 -139 58 -183 28 -72
30 -83 16 -96 -13 -13 -19 -3 -55 89 -49 127 -56 151 -78 258 -22 107 -21 243
2 332 18 70 42 88 36 27z m1076 -44 c2 -2 -1 -20 -8 -40 -15 -45 -6 -82 28
-117 31 -34 46 -35 66 -6 29 42 17 104 -28 140 l-21 18 28 0 c26 0 77 -40 77
-61 0 -5 7 -9 16 -9 12 0 15 7 12 30 -4 30 -4 30 41 30 25 0 55 3 66 6 17 4
20 0 20 -33 0 -21 3 -50 7 -64 6 -22 4 -28 -12 -32 -30 -8 -24 -24 10 -32 28
-6 50 -30 50 -54 0 -16 -17 -13 -47 6 -35 23 -71 18 -105 -15 -35 -32 -36 -20
-3 24 14 19 20 31 13 29 -8 -3 -33 -35 -58 -71 -24 -36 -51 -69 -60 -74 -13
-8 -13 -9 2 -10 17 0 68 54 68 73 0 6 7 2 15 -9 11 -14 14 -15 9 -3 -12 35 63
62 107 38 26 -13 13 -32 -17 -25 -16 4 -24 2 -24 -6 0 -11 -2 -11 -8 0 -7 9
-13 8 -27 -8 -18 -19 -18 -20 1 -22 10 0 25 -1 32 -1 20 1 14 -14 -20 -52 -53
-61 -162 -101 -258 -93 -44 3 -46 5 -74 60 -32 66 -47 177 -26 202 8 10 11 42
9 92 -4 91 10 110 76 99 21 -3 41 -8 43 -10z m-1038 -9 c0 -7 17 -29 39 -48
60 -55 136 -60 224 -16 29 14 37 15 37 5 0 -22 -34 -47 -86 -63 -88 -26 -157
-13 -208 42 -14 16 -26 24 -26 18 0 -16 37 -52 72 -70 41 -21 141 -21 190 0
21 9 39 16 41 16 2 0 -5 -39 -15 -87 -16 -69 -19 -112 -15 -198 3 -60 8 -119
12 -130 5 -18 -5 -25 -77 -58 -46 -20 -86 -37 -90 -37 -9 0 -43 77 -68 154
-28 84 -60 258 -60 324 0 79 11 162 21 162 5 0 9 -6 9 -14z m906 -130 c-8 -41
-25 -49 -102 -44 -42 3 -49 6 -52 25 -5 34 22 65 85 98 l58 30 9 -37 c5 -20 6
-53 2 -72z m-247 -51 c16 -35 41 -80 56 -99 l27 -35 -54 -27 c-29 -14 -65 -35
-79 -45 -14 -10 -35 -16 -46 -13 -15 4 -29 -5 -52 -32 l-31 -39 0 30 c0 75 54
212 111 282 19 23 35 42 36 42 2 1 16 -28 32 -64z m246 -180 c17 -59 51 -96
92 -99 15 -2 29 -7 30 -12 1 -5 -14 -8 -33 -7 -19 1 -33 -1 -30 -5 3 -5 -17
-7 -43 -5 -35 3 -53 0 -65 -12 -15 -15 -16 -15 -16 3 0 11 -9 31 -21 46 -17
22 -19 29 -8 42 9 11 14 12 20 3 7 -12 11 7 24 129 9 84 19 94 27 27 4 -32 14
-82 23 -110z m-77 19 c8 -6 -10 -44 -19 -39 -5 4 -9 -4 -9 -17 0 -17 -3 -19
-9 -9 -7 11 -10 11 -17 0 -4 -7 -3 -14 4 -17 7 -2 12 -10 12 -17 0 -7 7 -15
15 -19 24 -9 18 -54 -11 -81 -15 -14 -22 -25 -15 -25 6 0 19 9 28 20 10 11 29
20 43 20 14 0 65 7 113 17 85 16 90 16 123 -2 20 -10 44 -32 55 -47 l20 -28
-49 0 c-27 0 -75 -9 -107 -20 -57 -19 -60 -20 -104 -3 -25 9 -73 17 -108 18
-39 0 -64 4 -67 12 -3 7 1 10 10 6 7 -3 14 -1 14 5 0 5 -7 12 -15 16 -31 11
-13 70 29 93 11 6 14 13 8 17 -20 12 -62 -53 -62 -97 l-1 -42 -18 35 c-11 19
-28 43 -39 53 -13 12 -18 25 -14 35 5 15 4 15 -11 3 -14 -11 -18 -11 -23 3
-10 26 2 43 51 72 64 37 115 54 145 47 14 -3 27 -7 28 -9z m-283 -158 c8 -23
5 -30 -20 -50 -16 -13 -38 -42 -49 -66 -19 -39 -32 -49 -131 -102 -92 -48
-418 -188 -439 -188 -3 0 -6 7 -6 15 0 16 60 59 97 70 19 5 22 3 16 -11 -6
-15 -4 -15 20 1 15 9 24 21 21 27 -9 14 -64 -1 -116 -32 -29 -17 -50 -25 -54
-19 -3 6 -4 11 -3 12 2 2 49 32 105 69 121 79 186 113 278 144 38 13 85 36
104 51 110 86 148 112 157 110 6 -2 14 -16 20 -31z m87 -68 c26 -28 29 -38 24
-74 -3 -25 -1 -46 7 -54 9 -10 9 -11 0 -6 -7 4 -13 2 -13 -3 0 -21 19 -11 37
20 18 30 19 31 78 26 100 -7 171 -35 216 -84 21 -23 39 -49 39 -57 0 -7 -20
-41 -45 -75 -25 -34 -45 -66 -45 -71 0 -17 -9 -11 -40 23 -16 18 -50 45 -77
60 -54 29 -170 52 -219 42 -28 -5 -32 -2 -39 22 -3 15 -16 40 -27 56 -13 18
-23 51 -26 81 -3 45 0 55 28 89 39 45 63 47 102 5z m554 -34 c12 -3 27 -17 33
-30 15 -34 14 -36 -8 -24 -33 17 -145 12 -205 -10 l-54 -21 -64 22 c-34 11
-89 24 -120 26 -32 3 -58 10 -58 14 0 25 138 22 202 -4 28 -12 38 -12 68 1 63
27 158 39 206 26z m-1731 -105 c159 -50 331 -149 515 -295 47 -37 272 -255
500 -485 581 -583 685 -666 1075 -862 212 -105 526 -225 705 -267 l55 -14 -60
-11 c-65 -12 -120 -38 -205 -95 -152 -102 -477 -263 -680 -335 -464 -166 -938
-210 -1231 -115 -154 51 -308 153 -529 350 -281 252 -546 459 -735 576 -283
174 -601 279 -881 291 -156 7 -246 -9 -355 -64 -39 -19 -72 -33 -74 -31 -2 2
14 34 36 71 81 135 200 238 474 412 194 123 369 239 440 293 166 126 334 289
486 471 86 103 68 51 -24 -71 -173 -230 -360 -416 -539 -536 -84 -56 -140 -89
-332 -198 -155 -87 -262 -163 -349 -247 -66 -65 -72 -82 -25 -73 18 4 101 9
183 12 127 5 169 3 273 -15 428 -74 764 -281 1504 -923 238 -207 360 -276 562
-318 149 -32 386 -25 586 16 202 41 483 126 682 205 241 96 631 300 626 328
-2 11 -36 24 -108 43 -356 93 -753 288 -1023 504 -146 117 -285 250 -602 578
-153 158 -329 331 -390 383 -201 174 -438 314 -664 393 -82 29 -107 42 -109
57 -3 19 0 19 60 11 35 -6 104 -23 153 -39z m1776 11 c11 -14 39 -51 64 -82
38 -49 42 -58 29 -69 -18 -15 -47 -69 -41 -75 2 -2 16 14 31 36 29 44 25 43
186 65 101 14 151 24 211 41 11 3 18 -3 22 -15 4 -17 -1 -21 -32 -26 -48 -8
-101 -35 -101 -52 0 -15 5 -15 38 -7 12 4 22 10 22 16 0 5 -10 3 -22 -3 -18
-9 -21 -9 -11 1 16 17 121 41 129 29 11 -18 -19 -39 -140 -98 -211 -102 -285
-117 -349 -68 -20 15 -67 67 -104 114 -37 48 -92 113 -121 144 l-53 57 38 10
c21 6 71 10 112 9 65 -2 76 -5 92 -27z m-746 -17 l16 -38 -33 -29 c-46 -40
-178 -126 -193 -126 -7 0 -29 7 -48 15 -77 32 -204 10 -263 -46 -19 -18 -22
-18 -34 -4 -7 8 -11 17 -9 19 5 3 123 50 269 106 58 22 143 62 190 89 47 27
86 49 87 50 2 1 10 -16 18 -36z m642 -174 c98 -130 147 -169 211 -169 26 0 65
5 87 11 49 14 294 129 334 158 17 12 32 17 35 12 4 -5 2 -12 -4 -16 -5 -3 -42
-44 -80 -90 -39 -46 -86 -97 -106 -112 -44 -33 -112 -44 -206 -32 -130 16
-198 70 -299 238 -38 64 -82 132 -96 151 -20 27 -18 26 10 -6 20 -23 71 -88
114 -145z m-1943 142 c16 -16 58 -44 95 -62 36 -17 81 -43 99 -56 37 -28 44
-50 10 -32 -18 9 -15 3 10 -24 25 -25 35 -46 38 -78 4 -37 3 -40 -6 -20 -6 13
-13 21 -16 18 -3 -3 6 -28 20 -56 14 -28 26 -53 26 -57 0 -11 -97 4 -132 21
l-33 16 24 -21 c32 -27 21 -36 -21 -16 -75 36 -147 141 -167 242 -20 101 -20
133 -3 144 24 14 25 13 56 -19z m391 -201 c242 -118 407 -258 746 -631 414
-455 538 -577 714 -706 164 -120 367 -222 583 -293 62 -21 115 -40 118 -42 10
-11 -253 -172 -401 -246 -555 -277 -1014 -326 -1321 -141 -82 50 -198 140
-394 304 -641 538 -697 580 -905 680 -195 94 -404 158 -616 191 -63 10 -117
20 -122 24 -7 6 57 40 274 144 170 82 356 221 494 368 191 204 245 259 303
311 36 31 68 57 73 57 4 0 9 -8 11 -17 4 -21 -292 -334 -450 -476 -104 -93
-242 -191 -366 -258 -43 -23 -75 -46 -73 -53 2 -6 24 -12 50 -14 48 -3 47 -4
95 57 13 16 34 26 68 31 50 8 68 5 47 -8 -8 -5 -9 -19 -3 -47 5 -21 6 -51 3
-67 -3 -16 0 -34 7 -43 16 -19 0 -19 -26 0 -10 8 -31 15 -45 15 -15 0 -38 9
-52 20 -29 23 -59 25 -102 6 -35 -16 -40 -13 105 -60 337 -109 547 -241 1065
-671 428 -356 557 -450 720 -526 95 -45 119 -46 123 -8 2 18 -4 29 -22 39 -14
7 -32 23 -40 36 -14 21 -13 23 14 34 28 12 47 13 98 8 27 -3 27 -2 1 -55 -20
-41 -20 -45 -4 -69 29 -45 53 -49 187 -30 315 45 628 157 867 313 81 53 83 55
66 73 -31 34 -81 26 -132 -20 -39 -37 -48 -41 -91 -39 -26 1 -55 -2 -66 -6
-14 -6 -17 -5 -14 6 3 8 -1 29 -9 48 -15 38 -19 115 -9 149 4 12 2 32 -5 44
-12 22 -11 22 8 5 11 -9 25 -17 33 -17 36 0 94 -27 142 -66 29 -24 60 -44 69
-44 28 0 79 22 79 33 0 7 -33 25 -73 41 -101 40 -265 134 -372 213 -118 88
-306 273 -574 563 -530 575 -686 711 -918 801 -70 27 -84 37 -93 62 -5 17 -10
32 -10 34 0 9 50 -10 145 -57z m1127 39 c68 -15 100 -31 154 -81 41 -38 44
-44 44 -94 l0 -54 -39 0 c-21 0 -51 -5 -68 -10 -23 -9 -38 -7 -75 9 -42 19
-48 27 -85 108 -61 134 -61 133 -19 133 19 0 59 -5 88 -11z m-435 -33 c61 -30
111 -62 203 -133 10 -8 -7 -7 -55 4 -90 19 -198 12 -254 -17 l-42 -21 -76 68
-75 67 27 22 c37 29 79 42 145 43 44 1 71 -6 127 -33z m151 -6 c16 -12 60 -26
102 -33 l73 -12 35 -63 34 -62 -34 1 c-61 1 -107 23 -204 99 -77 60 -92 76
-77 81 30 12 42 10 71 -11z m111 -170 c130 -31 150 -51 199 -197 21 -62 36
-113 33 -113 -3 0 -47 14 -98 31 -68 22 -99 38 -118 61 -17 20 -25 25 -25 13
0 -37 53 -65 238 -125 287 -94 382 -155 443 -283 39 -83 50 -148 37 -217 -10
-59 -48 -134 -72 -143 -32 -12 -316 244 -672 607 l-352 358 42 19 c35 17 57
19 146 16 61 -3 145 -14 199 -27z m-1121 -23 c6 -7 16 -35 23 -62 15 -61 40
-112 74 -154 34 -39 51 -39 58 -1 14 67 127 92 182 40 34 -32 38 -53 21 -94
-19 -45 -33 -46 -28 -3 4 37 -8 52 -50 62 -21 5 -33 1 -54 -20 -24 -24 -26
-32 -22 -81 8 -94 76 -156 206 -189 99 -24 134 -47 164 -102 15 -26 28 -66 30
-88 l4 -40 54 -6 c96 -10 131 -39 199 -159 16 -31 46 -71 65 -89 68 -66 186
-47 186 29 0 41 -40 68 -76 51 -32 -14 -34 -14 -34 3 0 51 82 62 132 17 27
-24 32 -36 36 -89 4 -58 3 -63 -26 -92 -17 -16 -41 -30 -54 -30 -22 -1 -22 -1
4 -16 15 -8 51 -19 80 -24 75 -15 94 -31 113 -97 9 -32 26 -73 37 -91 30 -49
94 -92 136 -92 65 0 95 57 52 100 -19 19 -19 20 -2 20 27 0 62 -42 68 -81 4
-26 0 -41 -17 -63 -21 -26 -26 -28 -75 -23 -93 10 -171 68 -229 172 -47 84
-65 97 -130 103 l-55 4 0 -67 c0 -63 -2 -69 -35 -102 -32 -32 -40 -35 -73 -30
-20 4 -48 15 -62 25 -29 21 -70 96 -70 128 0 28 25 54 51 54 20 0 20 0 0 -26
-26 -33 -27 -58 -1 -84 26 -26 80 -26 114 1 20 15 26 29 26 58 0 43 -13 64
-96 152 -34 37 -70 81 -80 98 -10 17 -21 31 -24 31 -3 0 -12 -15 -20 -33 -19
-41 -61 -49 -84 -15 -29 41 -13 86 20 54 20 -21 30 -20 55 5 28 28 19 75 -19
107 -27 23 -102 48 -156 54 -27 3 -30 7 -42 66 -7 35 -25 83 -38 107 -44 75
-129 92 -188 38 -23 -21 -23 -28 2 -53 17 -17 18 -20 3 -20 -44 0 -69 62 -38
94 20 20 19 26 -7 26 -35 0 -105 48 -136 93 -16 23 -44 73 -62 111 -48 98
-102 126 -170 91 -53 -27 -65 -83 -29 -129 13 -17 30 -26 49 -26 38 0 54 22
47 65 -3 21 -2 33 4 30 5 -4 9 -24 9 -45 0 -30 -6 -43 -26 -59 -36 -29 -68
-26 -105 7 -25 23 -33 38 -36 78 -8 83 24 122 130 157 9 4 17 13 17 20 0 26
-23 82 -41 103 -11 11 -16 24 -12 27 11 11 40 8 51 -6z m1342 -35 c8 -3 48
-25 90 -49 75 -43 110 -53 110 -31 0 6 -3 8 -6 5 -4 -4 -33 7 -66 25 -32 17
-57 33 -55 35 3 2 26 4 53 5 43 1 51 -3 77 -33 55 -64 91 -156 95 -242 l4 -77
-68 31 c-38 16 -96 39 -130 50 l-62 20 -35 109 c-23 71 -47 124 -67 151 l-33
40 39 -16 c21 -9 46 -20 54 -23z m-1626 -413 l21 -22 -25 17 c-34 22 -53 20
-89 -10 -54 -45 -50 -115 11 -170 12 -12 49 -34 80 -48 64 -30 101 -68 133
-139 16 -33 24 -43 29 -32 16 43 126 37 126 -7 0 -19 -1 -19 -19 3 -16 20 -23
22 -38 13 -85 -52 -3 -192 126 -213 33 -6 35 -8 36 -53 4 -96 92 -162 169
-127 30 14 40 37 25 55 -9 11 -8 14 4 14 23 0 47 -39 47 -77 0 -21 5 -33 13
-33 27 0 95 -59 136 -118 23 -32 54 -68 69 -79 58 -43 123 -39 147 8 20 38 19
62 -6 93 -29 36 -64 49 -92 34 -20 -10 -21 -10 -8 5 29 36 94 10 129 -51 37
-66 24 -138 -29 -168 -23 -13 -22 -13 19 -14 79 0 131 -36 147 -103 15 -57
-81 -106 -123 -63 -16 16 -15 17 11 10 61 -15 92 65 41 105 -20 16 -41 21 -83
21 -31 0 -73 5 -94 11 -44 12 -111 68 -134 113 l-16 31 -13 -32 c-29 -69 -104
-85 -149 -32 -33 39 -33 102 0 107 16 3 18 1 8 -9 -20 -20 -16 -67 6 -79 52
-28 107 17 97 79 -11 72 -74 111 -178 111 -135 1 -193 52 -191 168 l1 52 -55
0 c-46 0 -59 4 -82 28 -15 15 -35 47 -44 72 -9 25 -26 72 -38 104 -45 124
-170 197 -259 151 -53 -27 -64 -74 -28 -112 23 -25 67 -30 86 -11 9 9 12 9 12
0 0 -7 -16 -20 -35 -29 -33 -16 -37 -16 -70 0 -91 44 -90 169 3 192 43 11 8
23 -87 30 -84 7 -87 8 -122 46 -40 42 -71 49 -101 22 -26 -23 -22 -58 9 -83
l28 -22 -34 4 c-44 4 -76 45 -76 98 0 116 169 118 233 2 23 -41 25 -42 75 -42
29 0 67 -4 85 -9 39 -12 40 -8 6 32 -22 27 -25 38 -22 79 5 49 27 83 63 99 31
13 87 2 109 -22z m668 -296 c15 -14 21 -15 27 -4 6 9 11 9 15 3 11 -18 -14
-24 -45 -12 -21 9 -33 10 -41 2 -15 -15 25 -34 58 -28 17 3 37 -2 55 -14 35
-26 39 -25 39 7 l0 27 25 -34 c31 -41 31 -50 4 -50 -18 0 -20 -4 -14 -22 10
-30 19 -185 11 -177 -4 3 -10 26 -14 50 -6 37 -13 47 -44 64 -36 19 -37 19
-58 0 -13 -11 -18 -25 -14 -34 4 -9 9 -29 13 -46 5 -21 17 -35 41 -47 l35 -16
-45 4 c-89 10 -108 15 -125 34 -22 25 -37 26 -34 3 3 -36 -2 -36 -26 -3 -30
41 -31 56 -6 63 16 4 18 11 13 52 l-5 47 34 -7 c19 -4 44 -16 55 -27 19 -17
25 -18 43 -6 16 9 20 19 15 33 -3 11 -8 35 -11 53 -4 27 -11 34 -34 39 -31 6
-38 30 -17 51 16 16 28 15 50 -5z m1505 -65 c4 -7 8 -54 9 -104 1 -61 7 -101
18 -122 9 -17 16 -34 16 -37 0 -3 -28 13 -62 35 -35 22 -69 44 -77 49 -11 7
-8 16 18 48 17 21 37 62 43 91 13 53 21 62 35 40z m1280 -822 c60 -44 85 -81
98 -146 l7 -35 -28 38 c-44 60 -40 34 5 -34 45 -68 48 -74 27 -66 -8 3 -16 1
-19 -6 -3 -9 -11 -8 -33 3 -49 24 -50 24 -20 -9 17 -17 25 -31 20 -31 -17 0
-50 41 -83 105 -18 33 -29 49 -26 35 3 -14 8 -36 11 -50 12 -55 -15 8 -36 85
-12 44 -28 89 -36 99 -12 18 -10 22 14 37 15 10 30 18 33 18 4 1 34 -19 66
-43z m-1927 -501 c11 -13 8 -14 -20 -8 -24 4 -31 3 -26 -5 4 -7 15 -12 24 -12
9 0 31 -9 47 -20 l30 -20 -60 5 c-42 4 -54 2 -40 -4 11 -5 28 -10 38 -10 10
-1 43 -13 73 -28 l55 -27 -68 -17 c-38 -10 -89 -18 -116 -18 -51 -1 -123 27
-153 60 -17 19 -16 20 9 47 15 16 27 36 27 45 0 13 13 17 73 20 39 1 77 4 83
5 6 1 17 -5 24 -13z"/>
</g>
</svg>
